<?xml version="1.0" standalone="no"?>
<!DOCTYPE svg PUBLIC "-//W3C//DTD SVG 20010904//EN"
 "http://www.w3.org/TR/2001/REC-SVG-20010904/DTD/svg10.dtd">
<svg version="1.0" xmlns="http://www.w3.org/2000/svg"
 width="1080.000000pt" height="1080.000000pt" viewBox="0 0 1080.000000 1080.000000"
 preserveAspectRatio="xMidYMid meet">
<metadata>
Created by potrace 1.11, written by Peter Selinger 2001-2013
</metadata>
<g transform="translate(0.000000,1080.000000) scale(0.100000,-0.100000)"
fill="#000000" stroke="none">
<path d="M35 9259 c-4 -5 -13 -8 -21 -5 -11 4 -14 -11 -14 -80 0 -65 3 -83 12
-78 9 5 9 2 -1 -9 -8 -11 -9 -17 -3 -17 6 0 9 -6 6 -14 -3 -8 0 -17 7 -22 8
-5 10 -3 4 6 -6 9 -4 11 4 6 9 -6 8 -13 -5 -27 -17 -19 -17 -20 1 -13 13 5 16
4 11 -4 -4 -7 -2 -12 6 -12 9 0 9 -3 -2 -10 -10 -6 -11 -10 -2 -10 6 0 12 -7
12 -15 0 -8 4 -15 9 -15 4 0 7 -11 6 -25 -2 -14 1 -25 7 -25 6 0 8 -6 5 -14
-6 -14 15 -40 25 -31 2 3 5 -2 5 -10 0 -8 -4 -12 -9 -9 -4 3 -8 0 -8 -5 0 -6
5 -11 11 -11 5 0 7 -4 4 -10 -3 -5 -1 -10 5 -10 6 0 8 -4 5 -10 -3 -5 2 -21
11 -35 9 -14 12 -25 8 -25 -5 0 -2 -5 6 -10 13 -8 13 -10 1 -10 -11 0 -9 -4 5
-15 10 -8 14 -15 7 -15 -7 0 -10 -7 -7 -15 4 -8 9 -13 13 -11 4 3 8 -7 9 -22
1 -14 8 -29 15 -34 9 -6 9 -8 -1 -8 -10 0 -9 -4 2 -16 9 -8 14 -20 11 -25 -4
-5 -1 -9 6 -9 6 0 9 -8 6 -20 -3 -11 -2 -20 2 -20 4 0 12 -14 18 -30 6 -17 7
-28 2 -25 -5 4 -6 -1 -3 -9 3 -9 10 -14 14 -11 4 3 7 -3 6 -13 0 -9 5 -16 12
-14 10 2 10 -2 1 -19 -8 -17 -8 -20 1 -14 8 5 11 3 8 -6 -3 -8 2 -23 11 -33
13 -16 13 -18 1 -11 -13 8 -13 6 -1 -8 7 -9 11 -23 7 -32 -3 -8 0 -14 6 -12 5
1 12 -5 13 -13 7 -35 11 -45 20 -52 6 -5 5 -8 -3 -8 -10 0 -9 -4 2 -16 9 -8
14 -20 11 -25 -4 -5 -2 -9 4 -9 5 0 8 -9 6 -20 -2 -11 0 -18 6 -15 5 4 9 -2 9
-12 0 -15 2 -16 10 -3 6 10 10 11 10 3 0 -15 21 -13 32 2 5 6 8 5 8 -2 0 -7 7
-10 17 -6 12 5 14 3 8 -8 -7 -11 -6 -12 6 -3 8 6 26 9 42 8 16 -2 27 2 27 9 0
8 3 8 8 2 11 -16 33 -17 50 -3 9 7 13 8 9 2 -4 -7 6 -11 28 -11 22 0 32 4 28
11 -4 6 0 5 9 -2 17 -14 39 -13 50 3 5 6 8 5 8 -2 0 -13 26 -13 47 0 6 4 19 0
27 -9 9 -8 16 -11 16 -5 0 6 7 7 17 4 12 -5 14 -3 8 8 -7 11 -6 12 6 3 20 -15
61 -16 52 -1 -5 9 -3 9 8 0 11 -9 19 -9 26 -2 7 7 15 5 26 -5 9 -10 18 -12 22
-7 3 6 12 8 20 4 9 -3 15 1 15 8 0 9 3 10 8 4 11 -16 33 -17 50 -3 9 7 13 8 9
2 -4 -7 6 -11 28 -11 22 0 32 4 28 11 -4 6 0 5 8 -1 11 -9 19 -9 26 -2 8 8 13
7 18 -2 6 -8 4 -10 -5 -4 -8 5 -11 4 -7 -2 3 -5 20 -8 37 -5 27 4 44 -12 20
-20 -6 -2 -1 -9 9 -15 15 -9 22 -10 27 -1 4 6 3 8 -4 4 -6 -3 -13 -2 -17 4 -3
5 1 10 10 10 8 0 18 -7 21 -15 4 -8 10 -12 15 -9 5 3 6 -2 2 -11 -5 -13 -7
-14 -14 -3 -5 7 -9 8 -9 2 0 -18 13 -24 27 -12 11 9 12 7 7 -7 -5 -12 -4 -16
3 -12 6 4 22 -4 37 -18 14 -13 21 -27 16 -30 -6 -3 -10 -12 -9 -18 0 -9 2 -9
6 1 2 6 12 12 20 12 12 0 13 -3 4 -13 -15 -19 -1 -30 17 -14 13 9 14 9 8 0 -4
-8 -2 -13 5 -13 8 0 8 -4 -1 -16 -11 -13 -10 -16 8 -21 20 -5 29 -32 23 -67
-1 -5 6 -6 15 -2 14 5 15 4 4 -9 -7 -8 -8 -15 -2 -15 15 0 21 -37 8 -51 -8 -9
-7 -11 5 -6 9 3 16 0 17 -6 10 -65 16 -87 24 -87 5 0 6 -5 2 -12 -5 -8 -2 -9
11 -4 13 5 15 3 8 -6 -14 -17 -9 -44 11 -64 19 -19 21 -28 4 -18 -7 4 -5 -1 4
-12 11 -12 15 -29 12 -44 -5 -20 -3 -22 5 -10 9 12 11 11 11 -7 0 -13 5 -23
11 -23 5 0 7 -5 4 -10 -4 -6 -1 -18 7 -27 11 -14 11 -16 0 -9 -11 7 -12 4 -3
-11 6 -11 8 -23 4 -26 -3 -4 2 -9 11 -13 13 -5 14 -9 5 -21 -10 -11 -8 -15 10
-20 17 -4 19 -8 9 -14 -9 -6 -9 -9 -1 -9 6 0 10 -9 8 -20 -2 -11 1 -20 7 -20
6 0 6 -6 -2 -15 -11 -13 -10 -14 4 -9 10 4 18 0 21 -10 3 -9 8 -24 12 -33 4
-10 8 -31 9 -48 2 -43 7 -58 24 -73 8 -8 9 -11 3 -7 -9 4 -11 1 -7 -9 3 -9 10
-16 14 -16 4 0 11 -7 14 -16 3 -8 2 -12 -4 -9 -5 3 -2 -7 7 -24 10 -16 22 -27
28 -23 5 3 4 -1 -3 -10 -10 -12 -9 -18 3 -28 13 -11 13 -15 3 -21 -10 -7 -10
-9 1 -9 7 0 11 -6 7 -15 -3 -8 -1 -15 5 -15 6 0 8 -4 4 -9 -3 -6 4 -26 15 -45
18 -33 18 -36 2 -36 -14 0 -15 -2 -2 -9 8 -6 17 -8 20 -6 3 2 6 -11 7 -28 2
-18 7 -33 13 -35 7 -3 7 -9 -1 -19 -10 -11 -10 -14 2 -11 8 2 13 -3 11 -9 -1
-7 3 -13 8 -13 7 0 7 -6 0 -19 -8 -16 -6 -22 7 -29 17 -10 24 -28 27 -69 0
-13 5 -23 10 -23 4 0 6 -7 3 -15 -4 -8 -1 -17 5 -21 7 -5 8 -2 3 6 -5 8 -4 11
3 6 6 -3 9 -15 7 -26 -2 -11 1 -20 6 -20 6 0 7 -4 4 -10 -3 -5 -1 -10 6 -10 8
0 7 -5 -2 -17 -10 -11 -10 -14 -1 -9 12 7 16 -4 13 -33 -2 -7 2 -10 8 -6 7 4
11 -4 11 -19 0 -14 5 -26 11 -26 5 0 7 -5 4 -10 -4 -6 1 -22 10 -37 9 -14 13
-23 8 -20 -5 4 -10 0 -10 -8 0 -8 4 -12 9 -9 7 5 12 -18 9 -38 0 -5 4 -8 10
-8 5 0 7 -4 4 -10 -3 -5 2 -10 12 -10 10 0 14 -4 8 -8 -5 -4 -11 -13 -13 -21
-2 -11 0 -12 11 -3 11 9 13 6 9 -18 -2 -17 0 -30 6 -30 6 0 9 -9 7 -20 -2 -11
3 -26 11 -35 17 -16 17 -24 2 -43 -8 -10 -6 -11 8 -6 10 4 16 4 12 -1 -4 -4
-2 -15 5 -23 10 -13 9 -14 -3 -7 -12 7 -13 6 -3 -7 7 -8 9 -19 5 -23 -4 -5 -1
-5 5 -1 7 4 13 4 14 -1 2 -29 9 -47 19 -53 9 -6 9 -9 -1 -13 -10 -4 -10 -6 -1
-6 7 -1 12 -14 12 -32 0 -21 4 -28 13 -23 7 5 6 0 -3 -11 -9 -11 -10 -16 -2
-11 6 4 12 3 12 -1 0 -5 -6 -15 -12 -22 -10 -11 -10 -13 0 -7 19 11 35 -3 21
-20 -9 -11 -8 -14 6 -14 10 0 15 -3 12 -7 -4 -3 1 -15 10 -26 10 -11 12 -17 6
-13 -7 4 -13 2 -13 -3 0 -6 5 -11 10 -11 6 0 10 -5 10 -11 0 -5 -4 -7 -10 -4
-6 3 -7 -1 -4 -9 3 -9 11 -13 16 -9 7 4 9 -4 6 -21 -4 -18 -1 -26 8 -26 17 0
18 -12 2 -29 -11 -10 -10 -12 2 -9 9 2 16 -6 18 -20 2 -14 8 -20 15 -15 7 3 3
-4 -7 -16 -19 -21 -19 -21 -1 -15 13 5 16 4 11 -4 -4 -7 -2 -12 5 -12 6 0 9
-8 6 -20 -4 -14 0 -20 11 -21 11 0 12 -2 5 -6 -10 -3 -9 -8 2 -20 8 -8 13 -19
9 -24 -3 -6 -2 -15 4 -22 14 -18 23 -49 13 -42 -5 3 -13 0 -17 -6 -5 -8 -3 -9
5 -5 8 5 14 0 18 -13 3 -12 12 -21 20 -21 8 0 11 -5 8 -10 -4 -6 -11 -8 -16
-5 -5 3 -6 -1 -3 -9 3 -9 14 -16 23 -16 14 0 14 -2 1 -10 -11 -7 -11 -10 -2
-10 7 0 10 -4 7 -10 -3 -5 -2 -10 3 -10 6 0 13 -7 16 -16 3 -8 2 -12 -4 -9 -6
3 -10 1 -10 -5 0 -6 6 -13 13 -16 7 -2 13 -12 14 -22 1 -9 7 -30 14 -47 7 -16
11 -38 10 -49 -2 -11 2 -16 8 -12 7 4 8 1 5 -8 -3 -9 -1 -16 4 -16 6 0 9 -9 7
-20 -2 -11 1 -20 7 -20 6 0 8 -9 5 -20 -4 -14 0 -20 11 -20 15 0 15 -2 2 -10
-11 -7 -11 -10 -2 -10 7 0 10 -4 7 -10 -3 -5 1 -10 10 -10 13 0 14 -4 4 -22
-11 -21 -11 -22 5 -9 14 12 16 12 11 -2 -4 -8 -2 -18 4 -22 6 -3 11 -12 11
-18 0 -7 -4 -6 -10 3 -7 12 -9 10 -7 -7 0 -12 5 -19 10 -16 12 7 4 -30 -8 -40
-5 -5 1 -5 15 -1 22 6 23 5 11 -10 -10 -12 -10 -16 -1 -16 7 0 10 -6 7 -14 -3
-8 3 -22 13 -31 11 -10 16 -24 13 -33 -5 -11 -3 -13 7 -7 10 6 12 3 8 -13 -4
-14 -2 -20 4 -16 7 5 9 -3 4 -22 -5 -21 -4 -25 4 -14 10 16 12 9 13 -47 0 -13
4 -23 9 -23 5 0 6 -4 3 -10 -3 -6 -1 -10 6 -10 7 0 10 -3 6 -6 -3 -4 1 -20 9
-36 8 -16 12 -33 9 -38 -3 -6 -1 -10 4 -10 6 0 11 -8 11 -17 0 -10 7 -26 15
-36 7 -11 12 -27 10 -38 -2 -10 0 -19 5 -19 4 0 11 -7 14 -16 3 -8 2 -12 -4
-9 -6 4 -5 -5 1 -19 7 -14 15 -23 20 -21 4 3 5 -5 1 -17 -4 -16 -2 -19 9 -13
11 7 12 6 2 -6 -9 -11 -8 -18 1 -31 7 -10 17 -14 22 -10 4 4 2 -2 -6 -12 -11
-15 -11 -18 -2 -12 10 6 13 3 11 -10 -1 -11 6 -37 16 -59 10 -22 18 -46 18
-52 0 -7 4 -13 8 -13 4 0 6 -9 4 -20 -2 -11 1 -20 6 -20 6 0 7 -4 4 -10 -3 -5
-1 -10 5 -10 6 0 8 -4 5 -10 -3 -5 -2 -10 3 -10 5 0 9 -7 10 -15 1 -8 3 -22 4
-30 1 -8 6 -15 11 -15 5 0 7 -9 4 -20 -3 -11 -1 -23 4 -26 5 -3 7 -10 4 -15
-4 -5 -1 -9 4 -9 6 0 11 -11 11 -25 0 -14 4 -25 9 -25 6 0 8 -9 6 -20 -2 -11
1 -20 6 -20 6 0 7 -4 4 -10 -3 -5 -1 -10 5 -10 6 0 8 -5 5 -10 -3 -6 -1 -10 5
-10 7 0 10 -6 7 -13 -3 -8 3 -20 13 -27 10 -7 17 -22 15 -32 -2 -10 0 -16 4
-13 5 3 12 -2 15 -11 3 -8 2 -12 -4 -9 -11 7 -14 -8 -3 -19 4 -4 8 -19 9 -34
2 -42 3 -44 17 -36 7 5 6 0 -3 -11 -12 -15 -12 -17 -1 -10 11 6 13 4 8 -8 -3
-9 0 -18 9 -21 9 -3 13 -10 9 -16 -8 -13 13 -52 25 -45 4 3 6 -5 2 -17 -3 -11
-1 -19 4 -16 5 4 10 -5 10 -18 1 -13 -2 -21 -7 -19 -4 3 -2 -7 6 -22 11 -21
12 -29 2 -35 -8 -5 -6 -8 6 -8 10 0 17 -6 15 -12 -1 -7 4 -23 11 -36 7 -13 10
-30 7 -39 -4 -11 -2 -13 9 -9 8 3 14 2 12 -2 -3 -11 39 -62 52 -62 6 0 11 -7
11 -16 0 -10 5 -14 16 -10 8 3 12 2 9 -4 -3 -6 4 -10 17 -10 18 0 20 -2 8 -10
-12 -8 -10 -10 8 -10 13 0 20 -4 17 -10 -3 -6 0 -10 7 -10 7 0 18 -8 25 -18
11 -18 35 -19 477 -19 382 1 466 3 462 14 -3 7 -2 13 3 13 9 0 8 37 -2 46 -4
4 -2 13 4 21 6 7 7 13 2 13 -11 0 -11 29 1 48 4 6 3 12 -3 12 -7 0 -7 8 -1 25
6 15 6 26 0 30 -7 4 -6 13 0 26 9 15 7 21 -5 25 -8 3 -12 10 -9 15 3 5 1 9 -4
9 -5 0 -9 6 -9 13 -1 24 -8 42 -23 55 -8 8 -9 11 -3 7 9 -4 11 -1 7 9 -3 9
-10 16 -15 16 -4 0 -6 7 -3 15 4 9 0 15 -7 15 -12 0 -12 2 -1 9 11 6 10 11 -3
24 -9 9 -13 21 -10 27 3 6 -1 13 -10 16 -12 5 -13 9 -4 20 8 10 8 14 0 14 -6
0 -11 7 -11 15 0 8 -6 15 -12 15 -9 0 -8 4 2 10 14 9 7 15 -14 11 -5 -1 -4 5
4 13 11 14 8 19 -10 18 -3 0 -5 9 -6 21 -1 28 -7 51 -15 57 -4 3 -9 16 -10 30
-2 14 -7 28 -11 31 -5 3 -9 17 -10 32 -1 15 -6 27 -10 27 -4 0 -8 9 -8 20 0
11 -4 20 -10 20 -5 0 -10 5 -10 11 0 5 4 8 9 5 4 -3 -1 12 -11 34 -11 21 -21
45 -22 52 -8 37 -19 68 -25 68 -4 0 -7 8 -8 18 -2 33 -13 67 -23 70 -6 2 -7 8
-4 14 4 6 0 14 -7 19 -11 7 -11 9 -1 9 10 0 9 4 -2 16 -9 8 -14 20 -11 25 4 5
2 9 -4 9 -6 0 -8 7 -5 15 4 8 1 15 -4 15 -6 0 -9 9 -7 20 3 13 -2 20 -12 20
-13 0 -14 2 -2 17 12 14 12 16 0 8 -11 -6 -13 -2 -9 18 3 15 2 24 -2 22 -6 -4
-16 26 -20 63 -1 4 -8 10 -15 15 -8 4 -12 14 -8 22 3 9 0 22 -7 30 -6 8 -9 18
-6 24 3 5 3 11 -1 13 -16 6 -42 67 -31 70 6 2 4 11 -6 21 -10 9 -14 17 -11 17
4 0 0 12 -10 26 -9 15 -12 23 -5 19 7 -4 5 6 -5 24 -9 17 -13 36 -10 41 3 6 1
10 -4 10 -6 0 -11 9 -11 20 0 11 -4 20 -9 20 -5 0 -8 8 -7 18 2 9 -2 20 -7 24
-7 4 -6 12 3 22 11 14 10 16 -5 9 -14 -5 -17 -3 -12 10 3 9 -3 28 -16 43 -12
16 -16 25 -9 20 8 -4 12 -1 12 9 0 9 -5 13 -11 9 -7 -4 -9 0 -5 13 4 12 1 25
-9 33 -8 7 -12 16 -9 21 3 5 1 9 -4 9 -14 0 -21 48 -8 54 6 2 3 5 -7 5 -10 1
-15 6 -12 11 3 6 2 10 -4 10 -6 0 -7 7 -4 17 4 10 2 14 -4 10 -5 -3 -10 -1
-10 6 0 7 -4 21 -8 32 l-8 20 17 -20 c18 -21 11 -1 -8 24 -5 7 -11 20 -13 29
-1 9 -7 18 -13 20 -7 3 -7 9 2 20 10 12 10 14 1 8 -9 -5 -13 0 -13 13 0 12 -5
21 -11 21 -8 0 -8 5 1 15 10 12 9 16 -3 21 -9 3 -13 12 -10 21 5 12 3 14 -7 8
-9 -6 -11 -4 -6 4 5 7 0 18 -10 26 -15 11 -16 15 -5 29 12 14 11 16 -5 16 -16
0 -17 2 -4 10 11 7 12 10 2 10 -9 0 -11 7 -7 22 6 17 4 20 -10 14 -15 -5 -16
-4 -5 9 9 11 9 15 1 15 -7 0 -11 6 -10 13 1 6 -1 20 -6 30 -6 14 -10 15 -15 6
-5 -7 -7 7 -5 30 2 27 -3 47 -12 57 -8 8 -12 21 -9 29 3 9 -1 15 -10 15 -8 0
-12 5 -9 10 4 6 1 18 -7 27 -11 14 -11 16 1 8 17 -10 7 10 -21 41 -13 14 -16
24 -9 29 6 3 11 11 11 16 0 6 -4 8 -9 5 -5 -3 -12 10 -15 29 -4 19 -12 35 -19
36 -7 0 -3 4 8 9 18 8 18 9 2 9 -10 1 -15 6 -12 11 3 6 1 10 -6 10 -6 0 -9 8
-6 19 3 12 -1 22 -10 25 -8 3 -11 11 -8 17 4 5 -1 19 -11 30 -15 17 -16 23 -5
41 7 11 8 17 2 13 -6 -3 -11 -1 -11 5 0 6 -5 8 -12 4 -8 -5 -7 0 2 11 9 11 10
16 3 11 -7 -4 -13 -3 -13 3 0 5 5 13 10 16 14 9 3 25 -13 19 -7 -2 -13 6 -14
22 0 15 -7 30 -15 35 -10 7 -10 9 2 9 12 0 12 2 2 9 -7 4 -15 14 -16 22 -2 8
-6 22 -11 32 -4 9 -5 24 -1 32 3 8 0 14 -6 12 -6 -1 -13 4 -16 12 -3 9 0 11 9
7 8 -4 6 -1 -5 8 -10 8 -16 22 -13 31 4 8 2 15 -3 15 -6 0 -10 7 -10 16 0 9
-5 12 -12 8 -10 -6 -10 -4 0 8 10 12 10 18 2 23 -7 4 -10 18 -8 30 3 16 1 22
-8 18 -8 -3 -11 5 -10 26 1 17 -2 37 -7 44 -6 8 -7 6 -3 -6 4 -11 2 -16 -5
-11 -6 3 -9 15 -6 25 4 13 0 19 -11 19 -10 0 -13 3 -7 8 13 9 18 35 5 27 -6
-4 -10 4 -10 19 0 14 -4 26 -10 26 -5 0 -10 5 -10 11 0 5 6 7 13 4 6 -4 1 3
-13 14 -20 17 -21 20 -5 14 17 -6 18 -4 8 9 -7 8 -9 19 -5 23 4 5 1 5 -5 1
-12 -7 -18 12 -14 37 1 5 -3 6 -8 3 -5 -3 -12 1 -15 10 -3 8 -2 12 4 9 6 -3 7
1 4 9 -3 9 -11 16 -16 16 -6 0 -8 9 -5 20 3 11 0 20 -5 20 -6 0 -5 6 2 15 11
13 10 14 -4 9 -12 -5 -16 0 -17 22 -1 16 -1 35 0 43 2 7 -2 10 -8 6 -10 -5
-16 14 -12 38 0 4 -4 7 -10 7 -8 0 -7 5 1 15 11 13 10 14 -3 9 -12 -4 -14 -1
-10 17 4 14 2 20 -5 16 -6 -5 -9 2 -8 17 2 14 -2 24 -8 23 -6 -1 -10 4 -9 11
2 6 -3 12 -10 12 -8 0 -7 4 3 10 9 6 11 10 3 10 -7 0 -10 7 -6 17 4 11 3 14
-5 9 -7 -4 -12 -1 -12 9 0 10 5 13 12 9 7 -4 1 8 -12 26 -13 18 -17 30 -9 25
12 -8 12 -6 1 8 -8 9 -11 21 -7 27 3 5 -1 10 -11 10 -12 0 -14 3 -6 13 8 10 6
16 -9 25 -16 10 -18 16 -9 27 8 10 8 15 -1 21 -8 5 -9 3 -4 -6 5 -8 4 -11 -3
-6 -6 3 -9 15 -7 26 2 11 0 20 -5 20 -5 0 -6 7 -3 17 5 11 3 14 -6 8 -10 -6
-11 -3 -2 13 9 17 7 25 -10 41 -13 12 -19 26 -16 35 4 9 3 16 -1 16 -4 0 -12
11 -19 25 -6 14 -8 23 -4 20 4 -2 8 2 8 10 0 8 -4 12 -9 9 -4 -3 -8 5 -8 17 0
12 -3 19 -7 16 -11 -12 -32 27 -22 40 7 7 6 14 -2 19 -8 5 -9 3 -4 -7 8 -12 6
-12 -8 0 -18 15 -23 26 -7 16 6 -3 10 5 10 19 0 14 -5 28 -10 31 -8 5 -8 11 0
20 8 10 8 15 -1 21 -8 5 -9 3 -4 -6 5 -8 4 -11 -3 -6 -6 4 -9 13 -5 21 3 8 0
15 -6 15 -6 0 -11 9 -11 20 0 12 -7 34 -15 51 -9 16 -13 35 -9 41 4 7 3 8 -4
4 -8 -5 -12 0 -12 13 0 12 -5 21 -11 21 -8 0 -8 4 0 14 9 11 9 15 -1 19 -10 4
-10 8 2 16 13 9 12 11 -4 11 -19 0 -19 0 0 23 10 12 12 16 4 10 -21 -20 -30
-16 -30 13 0 15 -10 35 -22 45 -11 11 -16 19 -10 19 12 0 -7 60 -23 72 -6 5
-4 8 5 8 13 0 13 2 1 9 -8 5 -11 16 -8 24 4 12 1 14 -11 10 -13 -5 -15 -3 -5
7 9 10 9 16 -2 26 -8 8 -12 23 -10 34 3 13 0 18 -7 14 -7 -5 -9 -2 -5 9 3 9 1
22 -6 29 -12 14 -19 33 -20 56 0 6 -5 12 -10 12 -5 0 -4 7 3 16 11 12 11 15
-1 12 -9 -2 -13 4 -11 16 2 12 -1 16 -10 10 -7 -4 -10 -4 -6 0 4 5 3 19 -3 33
-7 18 -6 22 4 17 6 -4 2 3 -11 15 -23 22 -30 37 -12 26 6 -3 10 -1 10 4 0 6
-5 11 -11 11 -5 0 -8 4 -5 9 3 5 -1 11 -9 15 -8 3 -12 12 -9 21 3 8 1 15 -5
15 -6 0 -11 11 -11 25 0 14 -5 25 -11 25 -8 0 -8 4 0 14 9 11 9 16 0 22 -8 5
-9 3 -4 -6 5 -8 4 -11 -3 -7 -5 4 -8 16 -5 27 3 12 0 20 -6 20 -7 0 -10 4 -6
9 3 5 -2 17 -11 25 -8 9 -11 16 -6 16 6 0 13 7 16 16 6 15 4 15 -11 3 -9 -8
-14 -9 -10 -2 4 6 2 15 -4 18 -5 4 -8 13 -5 21 3 8 0 14 -6 14 -6 0 -5 6 3 17
8 9 9 14 4 11 -6 -4 -17 2 -24 14 -10 16 -10 19 1 12 7 -4 5 2 -5 14 -11 11
-16 25 -13 31 4 5 2 12 -4 16 -6 4 -8 11 -5 16 4 5 1 9 -5 9 -6 0 -8 5 -5 10
4 6 1 17 -5 25 -9 11 -9 15 -1 15 8 0 8 4 -1 14 -7 8 -16 12 -19 10 -3 -2 -5
8 -3 21 1 14 -4 32 -12 40 -8 8 -15 17 -14 20 1 25 -1 29 -11 15 -9 -12 -10
-11 -6 7 5 21 -16 39 -33 28 -4 -3 -6 4 -3 15 3 12 2 20 -3 19 -17 -4 -44 13
-44 27 0 8 -7 14 -15 14 -8 0 -15 7 -15 15 0 8 -3 14 -7 14 -21 -3 -26 2 -13
12 12 9 11 10 -6 6 -18 -4 -21 -1 -17 17 3 15 2 17 -5 8 -8 -11 -10 -11 -14 0
-3 8 -18 13 -34 12 -16 -1 -35 3 -41 9 -7 5 -13 5 -13 0 0 -5 -9 -9 -20 -10
-13 -1 -18 2 -14 9 5 7 2 8 -6 3 -19 -12 -100 -14 -100 -2 0 5 -6 5 -13 -2
-10 -8 -17 -7 -27 2 -10 9 -11 9 -6 -1 8 -13 -19 -13 -41 1 -7 5 -13 4 -13 -2
0 -11 -19 -9 -39 3 -9 6 -12 5 -8 -1 3 -5 -14 -9 -44 -9 -27 0 -49 4 -49 9 0
5 -6 5 -13 -2 -10 -8 -17 -7 -27 2 -10 9 -11 9 -6 -1 8 -13 -19 -13 -41 1 -7
5 -13 4 -13 0 0 -5 -9 -9 -20 -10 -13 -1 -18 2 -14 9 4 7 2 8 -4 4 -21 -12
-51 -15 -58 -5 -4 6 -11 5 -21 -2 -11 -10 -16 -10 -23 0 -5 10 -9 10 -15 2 -5
-9 -11 -9 -23 1 -12 10 -14 10 -8 0 8 -13 -19 -13 -41 1 -7 5 -13 4 -13 -2 0
-11 -19 -9 -39 3 -9 6 -12 5 -8 -1 3 -5 -14 -9 -44 -9 -27 0 -49 4 -49 9 0 5
-6 4 -14 -2 -10 -9 -16 -9 -21 -1 -5 8 -10 8 -20 0 -10 -8 -15 -8 -20 0 -4 6
-12 7 -18 3 -15 -11 -108 -10 -126 1 -9 6 -12 5 -8 -1 3 -5 -14 -9 -44 -9 -27
0 -49 4 -49 9 0 5 -6 4 -14 -2 -10 -9 -16 -9 -21 -1 -5 8 -11 7 -22 -1 -11
-10 -16 -10 -23 0 -5 10 -9 10 -15 2 -5 -9 -11 -9 -23 1 -12 10 -14 10 -8 0 8
-13 -19 -13 -41 1 -7 5 -13 4 -13 -2 0 -11 -19 -9 -39 3 -9 6 -12 5 -8 -1 3
-5 -14 -9 -44 -9 -27 0 -49 4 -49 9 0 5 -6 4 -14 -2 -10 -9 -16 -9 -21 -1 -5
8 -10 8 -20 0 -10 -8 -15 -8 -20 0 -4 6 -12 7 -18 3 -15 -11 -108 -10 -126 1
-9 6 -12 5 -8 -1 7 -12 -72 -11 -90 0 -7 4 -15 2 -18 -4z"/>
<path d="M1300 7959 c0 -5 5 -7 10 -4 6 3 10 8 10 11 0 2 -4 4 -10 4 -5 0 -10
-5 -10 -11z"/>
<path d="M3419 7491 c-22 -5 -26 -11 -24 -40 1 -19 7 -37 14 -39 9 -3 7 -10
-6 -25 -18 -21 -18 -21 1 -7 18 14 19 13 14 -7 -4 -13 -2 -23 4 -23 6 0 8 -9
5 -20 -3 -10 -2 -19 2 -18 19 2 22 -4 10 -19 -7 -10 -9 -15 -4 -10 10 8 37
-62 30 -80 -2 -7 7 -26 21 -42 17 -20 21 -31 12 -34 -10 -3 -10 -7 1 -18 12
-12 13 -12 6 1 -5 8 -5 12 -1 8 4 -3 8 -10 8 -15 0 -4 5 -14 11 -22 10 -12 9
-13 -3 -6 -12 7 -12 5 1 -11 9 -10 14 -24 12 -31 -2 -6 1 -14 6 -18 6 -3 11
-15 11 -26 0 -12 4 -17 11 -13 8 4 8 0 0 -15 -10 -17 -9 -22 4 -27 8 -3 12
-10 9 -15 -3 -5 1 -9 8 -9 11 0 10 -2 0 -9 -11 -7 -11 -9 1 -14 10 -4 13 -13
10 -28 -4 -15 -3 -20 5 -15 8 5 12 -4 12 -29 0 -25 4 -34 12 -29 8 5 9 2 5 -9
-7 -20 1 -49 13 -42 4 2 7 -10 8 -28 0 -17 6 -33 11 -35 6 -2 11 -8 11 -13 0
-6 -6 -7 -12 -3 -7 4 -6 -1 3 -12 17 -20 15 -49 -3 -38 -7 4 -8 2 -4 -5 6 -9
11 -9 22 0 11 9 14 7 14 -10 0 -11 4 -21 9 -21 5 0 12 -7 15 -16 6 -15 4 -15
-11 -3 -15 12 -16 12 -8 -1 4 -8 13 -22 20 -30 19 -24 27 -52 12 -44 -9 6 -9
5 0 -8 7 -8 10 -18 6 -21 -3 -4 -1 -7 5 -7 7 0 12 -9 12 -21 0 -11 5 -17 10
-14 6 3 10 1 10 -4 0 -6 -6 -11 -12 -11 -8 -1 -6 -6 5 -14 14 -11 15 -15 5
-19 -10 -4 -10 -6 0 -6 6 -1 12 -10 12 -20 0 -11 5 -23 11 -27 8 -4 7 -9 -2
-15 -11 -7 -9 -9 6 -9 17 0 17 -2 5 -10 -8 -5 -10 -10 -5 -10 17 0 33 -46 23
-64 -7 -12 -5 -16 4 -14 7 2 12 -3 11 -9 -2 -7 2 -13 8 -13 8 0 7 -6 -2 -17
-10 -11 -10 -14 -1 -9 11 6 17 -5 13 -26 0 -5 4 -8 9 -8 6 0 10 -8 10 -18 0
-10 6 -24 13 -31 6 -8 7 -11 1 -8 -6 3 -11 0 -11 -8 0 -8 4 -12 8 -9 10 6 22
-33 14 -46 -3 -5 -1 -10 4 -10 6 0 11 -7 11 -16 0 -9 -5 -13 -12 -9 -7 3 -3
-2 10 -11 12 -9 22 -27 22 -40 0 -13 5 -24 11 -24 6 0 9 -9 6 -20 -3 -10 1
-24 9 -31 8 -6 14 -20 14 -30 0 -11 5 -19 11 -19 8 0 8 -5 -1 -15 -11 -13 -7
-19 11 -17 3 1 4 -9 2 -22 -3 -12 2 -28 11 -35 8 -7 12 -19 9 -28 -3 -8 -1
-18 6 -22 7 -4 13 -18 14 -29 1 -12 6 -22 12 -22 5 0 3 -5 -5 -10 -8 -5 -10
-10 -5 -10 6 0 16 -9 23 -21 8 -12 9 -18 3 -14 -6 3 -2 -10 10 -29 12 -21 16
-36 10 -36 -7 0 -3 -10 8 -21 16 -17 18 -26 10 -42 -8 -14 -8 -18 0 -13 7 4
11 -1 11 -13 0 -12 5 -21 10 -21 6 0 10 -5 10 -11 0 -5 -6 -7 -12 -4 -7 4 -4
-1 6 -9 11 -9 16 -16 12 -16 -5 0 -2 -8 5 -17 8 -9 9 -14 3 -10 -6 3 -11 0
-11 -7 0 -8 6 -12 14 -9 9 3 11 0 7 -10 -3 -8 0 -18 6 -22 9 -6 9 -10 -1 -16
-11 -7 -10 -9 4 -9 10 0 15 -5 12 -11 -4 -5 1 -20 12 -31 10 -12 13 -18 6 -15
-6 4 -15 2 -19 -4 -4 -7 -3 -9 3 -6 16 10 36 -20 30 -44 -3 -13 0 -22 10 -26
12 -5 12 -7 1 -14 -8 -5 -9 -9 -2 -9 7 0 15 -10 19 -22 11 -36 11 -42 0 -51
-6 -4 -2 -7 9 -5 14 2 20 -4 23 -27 2 -16 10 -36 16 -44 10 -12 9 -13 -3 -6
-11 6 -11 4 2 -11 9 -10 17 -22 18 -26 5 -41 14 -68 24 -68 6 0 4 -5 -4 -10
-10 -6 -11 -10 -2 -10 6 0 12 -7 12 -15 0 -8 4 -15 8 -15 4 0 9 -9 10 -20 1
-11 3 -29 4 -40 1 -11 5 -20 9 -20 8 0 22 -41 19 -59 -1 -9 4 -12 15 -7 9 3
14 2 11 -3 -3 -4 198 -8 447 -7 248 1 464 -2 478 -5 16 -4 32 -2 38 4 7 7 11
7 11 1 0 -11 35 -12 45 -3 2 3 27 3 54 -1 28 -3 48 -4 46 0 -2 3 23 3 56 0 34
-3 63 -2 69 4 6 6 10 6 10 1 0 -11 51 -12 68 -1 7 4 12 2 12 -4 0 -8 6 -8 20
0 11 6 20 7 20 2 0 -10 30 -9 48 2 7 4 12 2 12 -4 0 -8 6 -7 21 1 15 7 24 8
32 0 7 -7 16 -7 29 0 10 5 18 6 18 1 0 -10 30 -9 46 0 5 4 16 3 24 -2 7 -4 24
-4 37 1 12 5 23 5 23 1 0 -10 42 -8 58 2 7 4 12 4 12 -1 0 -10 52 -9 68 1 7 4
12 3 12 -2 0 -10 30 -9 47 1 6 4 15 2 19 -4 4 -8 9 -7 15 2 7 12 9 12 9 0 0
-11 3 -11 15 -1 8 7 15 8 15 3 0 -10 35 -11 45 -2 2 3 27 3 54 -1 28 -3 48 -4
46 0 -2 3 23 3 56 0 34 -3 63 -2 69 4 6 6 10 6 10 1 0 -11 51 -12 68 -1 7 4
12 2 12 -4 0 -8 6 -8 20 0 11 6 20 7 20 2 0 -10 30 -9 48 2 7 4 12 2 12 -4 0
-8 6 -7 21 1 15 7 24 8 32 0 7 -7 16 -7 29 0 10 5 18 6 18 1 0 -10 30 -9 46 0
5 4 16 3 24 -2 7 -4 24 -4 37 1 12 5 23 5 23 1 0 -10 42 -8 58 2 7 4 12 4 12
-1 0 -10 52 -9 68 1 7 4 12 3 12 -2 0 -10 30 -9 47 1 6 4 15 2 19 -4 4 -8 9
-7 15 2 7 12 9 12 9 0 0 -11 3 -11 15 -1 8 7 15 8 15 3 0 -10 35 -11 45 -2 2
3 27 3 54 -1 28 -3 48 -4 46 0 -2 3 23 3 56 0 34 -3 63 -2 69 4 6 6 10 6 10 0
0 -10 51 -11 68 0 7 4 12 3 12 -2 0 -10 30 -9 47 1 6 4 15 2 19 -4 4 -8 9 -7
15 2 7 12 9 12 9 0 0 -10 3 -11 14 -2 9 7 17 8 20 2 6 -9 31 -9 41 0 2 3 27 3
54 -1 28 -3 48 -3 46 0 -2 3 19 3 46 0 27 -4 52 -3 55 2 3 5 12 4 20 -3 11 -9
14 -8 14 2 0 12 2 12 9 0 6 -9 11 -10 15 -2 4 6 13 8 19 4 17 -11 36 -12 41
-4 3 4 28 5 55 1 27 -3 48 -3 46 0 -2 3 19 3 46 0 27 -4 52 -3 55 2 3 5 12 4
20 -3 11 -9 14 -8 14 2 0 12 2 12 9 0 6 -9 10 -10 16 -2 4 7 12 8 18 3 14 -10
27 -10 45 1 7 5 12 3 12 -4 0 -8 4 -8 15 1 8 7 15 8 15 3 0 -5 9 -10 20 -11
50 -4 49 -4 38 -26 -10 -18 -9 -19 3 -9 12 10 18 8 29 -7 8 -11 21 -20 30 -20
12 0 12 -2 2 -9 -11 -7 -11 -9 2 -14 24 -9 22 -92 -3 -119 -11 -11 -17 -27
-14 -36 4 -10 2 -13 -5 -8 -11 6 -16 -5 -13 -26 0 -4 -7 -4 -17 -1 -9 3 -14 2
-9 -2 4 -5 0 -19 -9 -32 -12 -19 -13 -27 -3 -39 8 -10 8 -18 0 -27 -8 -10 -7
-17 1 -25 9 -9 9 -12 -1 -12 -7 0 -9 -4 -6 -10 3 -6 2 -10 -4 -10 -6 0 -8 -7
-5 -15 4 -10 0 -15 -12 -15 -11 0 -26 -5 -34 -11 -12 -8 -9 -9 10 -4 24 6 24
5 6 -9 -10 -9 -24 -12 -30 -9 -6 4 -5 0 2 -9 11 -14 9 -15 -18 -13 -16 1 -27
-1 -25 -6 3 -4 1 -10 -5 -14 -5 -3 -10 -1 -10 6 0 8 -4 8 -16 -2 -9 -7 -18 -9
-22 -3 -8 10 -52 14 -52 5 0 -3 -11 -6 -25 -6 -14 0 -25 5 -25 10 0 6 -5 3
-10 -5 -8 -12 -10 -12 -10 -1 0 11 -3 11 -15 1 -12 -10 -15 -10 -15 0 0 10 -3
10 -14 1 -11 -9 -15 -9 -19 1 -4 11 -6 11 -6 0 -1 -10 -6 -10 -21 -2 -15 8
-20 8 -20 -2 0 -9 -3 -9 -10 2 -5 8 -10 10 -10 4 0 -11 -35 -12 -46 -1 -4 3
-15 2 -25 -4 -14 -7 -19 -6 -19 3 0 9 -3 9 -10 -2 -8 -12 -10 -12 -10 -1 0 11
-3 11 -15 1 -10 -8 -19 -9 -27 -3 -15 11 -28 11 -45 0 -7 -5 -13 -4 -13 1 0 6
-14 7 -35 2 -19 -4 -35 -4 -35 0 0 10 -20 8 -37 -3 -7 -5 -13 -4 -13 2 0 7 -8
7 -27 0 -14 -5 -29 -6 -32 -2 -7 10 -51 12 -51 3 0 -8 -37 -6 -46 3 -4 4 -13
2 -21 -4 -9 -8 -13 -8 -13 0 0 7 -8 8 -25 1 -16 -6 -26 -6 -31 1 -4 6 -11 6
-20 -2 -11 -9 -14 -9 -14 1 0 10 -3 10 -14 1 -10 -9 -16 -9 -21 -1 -5 8 -11 8
-21 -1 -10 -8 -14 -8 -14 0 0 7 -8 8 -25 1 -16 -6 -26 -6 -31 1 -4 7 -10 6
-19 -1 -10 -8 -14 -7 -17 2 -4 10 -8 10 -21 -1 -11 -8 -17 -9 -17 -2 0 7 -8 8
-26 1 -14 -6 -31 -7 -37 -3 -15 9 -47 12 -47 4 0 -3 -18 -6 -40 -6 -22 0 -40
3 -40 7 0 8 -21 5 -37 -5 -7 -5 -13 -4 -13 2 0 7 -8 7 -26 1 -14 -6 -31 -7
-37 -3 -15 9 -47 12 -47 4 0 -3 -18 -6 -40 -6 -22 0 -40 3 -40 7 0 8 -21 5
-37 -5 -7 -5 -13 -4 -13 2 0 7 -8 7 -27 0 -14 -5 -29 -6 -32 -2 -7 10 -51 12
-51 3 0 -8 -37 -6 -46 3 -4 4 -13 2 -21 -4 -9 -8 -13 -8 -13 0 0 7 -8 8 -25 1
-16 -6 -26 -6 -31 1 -4 6 -11 6 -20 -2 -11 -9 -14 -9 -14 1 0 10 -3 10 -14 1
-10 -9 -16 -9 -21 -1 -5 8 -11 8 -21 -1 -10 -8 -14 -8 -14 0 0 7 -8 8 -25 1
-16 -6 -26 -6 -31 1 -4 6 -11 6 -20 -2 -11 -9 -14 -9 -14 1 0 10 -3 10 -14 1
-10 -9 -16 -9 -21 -1 -5 8 -11 8 -21 -1 -10 -8 -14 -8 -14 0 0 7 -8 8 -25 1
-16 -6 -26 -6 -31 1 -4 6 -11 6 -20 -2 -11 -9 -14 -9 -14 1 0 10 -3 10 -14 1
-10 -9 -16 -9 -21 -1 -5 8 -11 8 -21 -1 -10 -8 -14 -8 -14 0 0 7 -8 8 -25 1
-16 -6 -26 -6 -31 1 -4 7 -10 6 -19 -1 -10 -8 -14 -7 -17 2 -4 10 -8 10 -21
-1 -11 -8 -17 -9 -17 -2 0 7 -8 8 -26 1 -14 -6 -31 -7 -37 -3 -15 9 -47 12
-47 4 0 -3 -18 -6 -40 -6 -22 0 -40 3 -40 7 0 8 -21 5 -37 -5 -8 -5 -13 -3
-13 3 0 6 -4 9 -8 6 -16 -10 -62 -15 -62 -6 0 10 -19 8 -37 -3 -8 -5 -13 -3
-13 3 0 6 -5 8 -11 5 -15 -10 -59 -13 -59 -5 0 4 -7 7 -15 7 -8 0 -15 -3 -15
-6 0 -3 -122 -6 -270 -6 -149 0 -270 4 -270 8 0 5 -6 5 -12 0 -18 -10 -308
-10 -308 1 0 5 -6 4 -12 -1 -7 -6 -39 -9 -70 -7 l-57 3 2 -30 c1 -16 4 -29 7
-29 3 0 7 -10 7 -22 1 -13 7 -24 13 -26 5 -2 10 -17 10 -33 0 -16 5 -29 10
-29 6 0 10 -14 10 -31 0 -20 4 -28 12 -23 8 5 9 2 5 -9 -3 -10 -2 -17 3 -17 5
0 6 -7 3 -17 -4 -10 -2 -14 5 -9 6 4 11 -1 11 -11 1 -38 5 -53 12 -53 5 0 6
-7 3 -15 -4 -8 -1 -15 6 -15 6 0 8 -4 5 -10 -3 -5 -2 -10 4 -10 5 0 8 -9 6
-20 -2 -11 1 -20 7 -20 6 0 9 -3 6 -6 -4 -3 0 -17 7 -31 8 -15 12 -30 9 -35
-3 -4 -1 -8 4 -8 6 0 13 -7 16 -16 4 -10 2 -13 -7 -8 -8 5 -7 2 2 -9 7 -9 10
-17 5 -17 -5 0 -3 -4 3 -8 7 -4 14 -23 16 -42 3 -19 9 -36 15 -38 6 -2 8 -10
5 -19 -5 -12 -3 -14 7 -8 9 5 11 4 6 -4 -4 -6 -2 -19 6 -28 9 -12 9 -15 1 -9
-18 10 -16 -5 2 -18 8 -6 16 -23 17 -38 1 -16 7 -28 12 -28 5 0 6 -3 3 -7 -4
-3 0 -17 9 -31 9 -13 11 -21 5 -17 -6 3 -2 -10 9 -30 11 -19 20 -47 20 -60 0
-14 5 -25 10 -25 6 0 10 -11 10 -25 0 -14 5 -25 11 -25 8 0 7 -6 -2 -17 -8 -9
-9 -14 -3 -10 11 6 30 -36 26 -56 -1 -4 4 -10 11 -13 8 -3 13 -16 11 -30 -1
-13 2 -24 7 -24 6 0 7 -5 4 -10 -3 -6 -1 -10 6 -10 7 0 10 -3 6 -6 -16 -16 20
-29 67 -24 28 3 68 3 89 -1 20 -3 37 -2 37 2 0 5 11 5 23 0 13 -5 30 -5 37 -1
8 5 22 4 32 -1 10 -5 18 -6 18 -1 0 5 7 9 15 9 8 0 15 -4 15 -9 0 -5 6 -6 13
-1 16 10 37 13 37 5 0 -4 11 -7 25 -7 14 0 25 3 25 6 0 4 18 3 40 -1 22 -4 40
-4 40 1 0 5 11 5 23 0 13 -5 30 -6 37 -1 7 5 24 4 37 -1 14 -5 23 -5 23 1 0 6
9 6 23 1 14 -5 30 -5 40 0 12 7 17 6 17 -2 0 -8 5 -7 17 2 9 8 19 12 22 10 13
-10 81 -18 81 -10 0 5 11 5 23 0 13 -5 30 -5 37 -1 8 5 22 4 32 -1 10 -5 18
-6 18 -1 0 5 7 9 15 9 8 0 15 -4 15 -9 0 -5 6 -6 13 -1 16 10 37 13 37 5 0 -4
11 -7 25 -7 14 0 25 3 25 6 0 4 18 3 40 -1 22 -4 40 -4 40 1 0 5 11 5 23 0 13
-5 30 -6 37 -1 7 5 24 4 37 -1 14 -5 23 -5 23 1 0 6 9 6 23 1 14 -5 30 -5 40
0 11 7 17 6 17 -1 0 -7 5 -8 13 -3 15 10 24 10 70 2 20 -3 37 -3 37 2 0 5 11
5 23 0 13 -5 30 -5 37 -1 8 5 22 4 32 -1 10 -5 18 -6 18 -1 0 5 7 9 15 9 8 0
15 -4 15 -9 0 -5 6 -6 12 -1 17 10 38 13 38 5 0 -4 11 -7 25 -7 14 0 25 3 25
6 0 4 18 3 40 -1 22 -4 40 -4 40 1 0 5 11 5 23 0 13 -5 30 -6 37 -1 7 5 24 4
37 -1 14 -5 23 -5 23 1 0 6 9 6 23 1 14 -5 30 -5 40 0 11 7 17 6 17 -1 0 -7 5
-8 13 -3 15 10 24 10 70 2 20 -3 37 -3 37 2 0 5 11 5 23 0 13 -5 30 -5 37 -1
8 5 21 5 30 0 9 -5 23 -4 33 1 12 7 17 6 17 -3 0 -8 3 -9 11 -1 6 6 25 7 49 3
22 -4 42 -5 45 -2 8 8 45 10 45 2 0 -4 7 -7 15 -7 8 0 15 4 15 8 0 5 10 5 23
0 14 -6 30 -5 41 1 10 6 21 6 25 2 9 -13 31 -16 31 -4 0 6 9 6 23 1 14 -5 30
-5 40 0 11 7 17 6 17 -1 0 -6 4 -8 10 -5 11 7 377 8 388 1 4 -3 14 -1 22 4 8
5 22 5 32 -1 10 -5 18 -6 18 -1 0 5 7 9 15 9 8 0 15 -5 15 -11 0 -7 3 -7 11 1
6 6 25 7 50 3 21 -4 39 -4 39 1 0 5 11 5 23 0 13 -5 30 -6 37 -1 7 5 24 4 37
-1 14 -5 23 -5 23 1 0 6 9 6 23 1 13 -5 30 -6 37 -1 7 5 24 4 37 -1 15 -5 22
-5 18 0 -3 6 4 9 15 8 11 -1 20 -5 20 -10 0 -5 7 -4 16 4 13 10 17 10 24 0 5
-8 13 -10 21 -5 18 10 79 12 85 2 3 -5 10 -6 15 -2 17 10 59 12 65 2 3 -4 10
-6 15 -2 17 10 59 12 65 2 3 -4 10 -6 15 -2 17 10 59 12 65 2 3 -4 10 -5 16
-2 17 11 78 12 78 1 0 -5 7 -4 16 4 13 10 17 10 24 0 6 -11 9 -11 13 0 4 11 6
11 6 1 1 -8 6 -10 14 -5 20 12 37 12 37 0 0 -7 4 -5 10 3 5 8 13 15 17 16 20
2 42 17 37 25 -3 5 2 9 11 9 9 0 13 4 10 10 -3 5 1 23 10 40 8 16 15 32 15 35
-1 21 1 25 9 21 5 -4 8 5 6 20 -2 19 1 24 13 19 12 -4 12 -3 3 9 -9 10 -9 16
-1 21 6 4 9 13 6 21 -3 8 -1 14 4 14 6 0 10 9 10 19 0 11 7 26 15 34 11 12 12
17 2 20 -9 4 -9 6 1 6 7 1 10 6 7 12 -4 5 1 19 11 30 9 10 14 22 11 26 -4 3 1
15 10 26 12 13 13 17 4 12 -8 -5 -4 7 9 25 13 18 19 31 14 27 -6 -3 -11 0 -11
8 0 8 4 12 9 9 4 -3 8 2 8 11 0 10 5 13 13 9 8 -5 8 -2 -2 9 -9 12 -10 17 -2
17 7 0 9 5 6 10 -3 6 -1 10 5 10 6 0 9 4 6 9 -9 15 5 42 18 34 6 -4 6 -1 -2 9
-10 13 -10 17 4 22 13 5 14 9 4 21 -10 12 -9 16 3 21 9 3 13 12 10 21 -5 12
-3 14 7 8 8 -5 11 -4 6 3 -4 6 0 28 9 48 8 20 15 45 15 56 0 10 4 17 8 14 4
-3 7 8 6 24 -1 19 2 27 11 24 8 -4 12 6 10 30 -1 19 2 33 6 31 9 -6 19 20 19
51 0 13 5 24 10 24 6 0 10 9 10 20 0 11 5 20 11 20 8 0 7 6 -2 17 -12 14 -12
16 0 8 11 -6 13 -4 7 10 -5 15 -4 16 9 5 13 -11 16 -11 13 1 -2 8 -7 17 -13
21 -6 5 -5 8 3 8 7 0 11 4 7 9 -3 6 3 14 12 20 11 6 13 11 5 11 -7 0 -11 4 -7
10 3 5 13 6 23 3 15 -6 15 -5 -1 12 -18 17 -18 19 -2 28 14 8 15 11 4 18 -11
7 -11 9 -1 9 7 0 10 5 7 10 -3 6 2 10 12 11 10 0 13 3 6 6 -7 2 -13 9 -13 14
0 6 6 7 13 3 7 -5 6 0 -3 11 -9 11 -10 16 -2 11 6 -4 13 -2 13 3 3 21 4 26 14
41 8 13 12 28 17 68 1 6 5 12 9 12 4 0 6 9 4 20 -2 11 1 22 6 25 5 4 7 11 4
16 -4 5 -1 9 4 9 6 0 11 9 11 21 0 11 4 18 9 15 4 -3 7 6 5 19 -1 16 2 23 8
18 7 -4 9 2 6 15 -4 12 -3 20 2 17 4 -3 11 2 14 11 3 8 2 13 -3 10 -5 -4 -4 5
2 18 7 13 16 22 22 18 5 -3 3 3 -5 13 -13 17 -13 18 0 13 11 -4 15 2 15 26 0
17 5 30 11 29 5 -1 9 12 8 28 -1 16 3 29 9 29 6 0 7 3 4 7 -4 3 0 17 9 31 11
17 12 22 3 16 -11 -6 -12 -5 -2 8 7 8 10 18 6 21 -3 4 0 7 7 7 7 0 10 3 7 7
-4 3 -2 12 4 19 6 8 9 21 5 29 -3 8 -1 15 5 15 6 0 9 7 5 15 -3 8 4 21 17 30
13 9 16 15 7 15 -11 0 -11 3 -2 12 7 7 12 22 12 35 0 13 5 23 11 23 5 0 7 5 4
10 -3 6 2 10 12 10 10 0 14 4 8 8 -19 13 -17 35 2 28 14 -6 15 -5 6 5 -10 10
-9 15 5 25 11 9 13 13 4 14 -7 0 -10 5 -7 10 4 6 12 7 18 3 7 -4 6 0 -2 10 -9
12 -10 17 -2 17 7 0 9 5 5 12 -5 8 -2 9 11 4 18 -7 18 -6 0 14 -14 16 -16 21
-5 18 8 -2 14 3 12 10 -1 7 3 23 10 35 7 12 11 28 10 35 -2 6 2 12 7 12 5 0 8
9 6 20 -2 11 0 18 4 15 5 -3 12 2 15 11 4 10 2 13 -7 8 -8 -5 -8 -2 2 9 7 9
10 24 7 33 -4 11 -2 15 8 11 11 -4 13 -1 9 10 -4 11 -2 14 5 9 8 -5 10 -2 6 8
-3 9 -3 24 2 33 4 10 8 23 9 28 0 6 7 9 15 7 11 -3 11 0 0 12 -7 10 -8 16 -2
16 6 0 9 9 7 20 -2 11 1 20 7 20 5 0 8 7 5 15 -4 8 -2 17 4 20 5 4 6 12 2 18
-4 7 2 5 12 -3 17 -14 18 -14 6 9 -8 15 -9 21 -2 17 6 -4 11 0 12 11 3 39 4
44 19 53 10 6 11 10 3 10 -7 0 -13 5 -13 10 0 6 5 9 11 8 12 -3 19 24 21 74 0
15 5 25 10 22 5 -4 8 4 6 17 -2 16 -10 24 -23 24 -11 1 -25 4 -31 8 -6 3 -14
3 -18 0 -10 -11 -46 -11 -46 0 0 5 -7 4 -15 -3 -12 -10 -15 -10 -15 1 0 11 -3
11 -11 -1 -8 -11 -12 -12 -16 -3 -3 9 -10 10 -23 3 -13 -7 -21 -7 -26 1 -4 8
-9 7 -16 -2 -8 -11 -11 -11 -15 -1 -4 9 -8 10 -18 2 -9 -8 -15 -8 -20 0 -3 6
-12 7 -18 3 -17 -11 -61 -9 -69 2 -5 6 -8 5 -8 -4 0 -11 -3 -11 -17 0 -15 12
-16 12 -10 -5 6 -15 5 -17 -6 -8 -8 7 -35 11 -61 9 -26 -1 -50 1 -52 5 -3 5
-11 5 -17 1 -18 -11 -47 -11 -47 0 0 5 -7 4 -15 -3 -12 -10 -15 -10 -15 1 0
11 -3 11 -11 -1 -8 -11 -12 -12 -16 -3 -3 9 -10 10 -23 3 -13 -7 -21 -7 -26 1
-4 8 -9 7 -15 -2 -8 -12 -11 -11 -19 1 -7 11 -10 11 -10 2 0 -9 -5 -10 -18 -3
-13 7 -22 7 -29 0 -8 -8 -13 -7 -17 0 -5 8 -13 8 -27 1 -13 -8 -19 -7 -19 0 0
6 -5 8 -11 4 -14 -8 -132 -10 -146 -1 -6 4 -13 3 -17 0 -10 -11 -46 -11 -46 0
0 5 -7 4 -15 -3 -12 -10 -15 -10 -15 1 0 11 -3 11 -11 -1 -8 -11 -12 -12 -16
-3 -3 9 -10 10 -23 3 -13 -7 -21 -7 -26 1 -4 8 -9 7 -15 -2 -8 -12 -11 -11
-19 1 -7 11 -10 11 -10 2 0 -9 -5 -10 -18 -3 -13 7 -22 7 -29 0 -8 -8 -13 -7
-17 0 -5 8 -13 8 -27 1 -13 -8 -19 -7 -19 0 0 6 -5 8 -11 4 -14 -8 -132 -10
-146 -1 -6 4 -13 3 -17 0 -10 -11 -46 -11 -46 0 0 5 -7 4 -15 -3 -12 -10 -15
-10 -15 1 0 11 -3 11 -11 -1 -8 -11 -12 -12 -16 -3 -3 9 -10 10 -23 3 -13 -7
-21 -7 -26 1 -4 8 -9 7 -15 -2 -8 -12 -11 -11 -19 1 -7 11 -10 11 -10 2 0 -9
-5 -10 -18 -3 -13 7 -22 7 -29 0 -8 -8 -13 -7 -17 0 -5 8 -13 8 -27 1 -13 -8
-19 -7 -19 0 0 6 -5 8 -11 4 -14 -8 -132 -10 -146 -1 -6 4 -13 3 -17 0 -10
-11 -46 -11 -46 0 0 5 -7 4 -15 -3 -12 -10 -15 -10 -15 1 0 11 -3 11 -11 -1
-8 -11 -12 -12 -16 -3 -3 9 -10 10 -23 3 -13 -7 -21 -7 -26 1 -4 8 -9 7 -15
-2 -8 -12 -11 -11 -19 1 -7 11 -10 11 -10 2 0 -9 -5 -10 -18 -3 -13 7 -22 7
-29 0 -8 -8 -13 -7 -17 0 -5 8 -13 8 -27 1 -13 -8 -19 -7 -19 0 0 6 -5 8 -11
4 -14 -8 -132 -10 -146 -1 -6 4 -13 3 -17 0 -10 -11 -46 -11 -46 0 0 5 -7 4
-15 -3 -12 -10 -15 -10 -15 1 0 11 -3 11 -11 -1 -8 -11 -12 -12 -16 -3 -3 9
-10 10 -23 3 -13 -7 -21 -7 -26 1 -4 8 -9 7 -15 -2 -8 -12 -11 -11 -19 1 -7
11 -10 11 -10 2 0 -9 -5 -10 -18 -3 -13 7 -22 7 -29 0 -8 -8 -13 -7 -17 0 -5
8 -13 8 -27 1 -13 -8 -19 -7 -19 0 0 6 -5 8 -11 4 -14 -8 -132 -10 -146 -1 -6
4 -13 3 -17 0 -10 -11 -46 -11 -46 0 0 5 -7 4 -15 -3 -12 -10 -15 -10 -15 1 0
11 -3 11 -11 -1 -8 -11 -12 -12 -16 -3 -3 9 -10 10 -23 3 -13 -7 -21 -7 -26 1
-4 8 -9 7 -15 -2 -8 -12 -11 -11 -19 1 -7 11 -10 11 -10 2 0 -9 -5 -10 -18 -3
-13 7 -22 7 -29 0 -8 -8 -13 -7 -17 0 -5 8 -13 8 -27 1 -13 -8 -19 -7 -19 0 0
6 -5 8 -11 4 -14 -8 -132 -10 -146 -1 -6 4 -13 3 -17 0 -10 -11 -46 -11 -46 0
0 5 -7 4 -15 -3 -12 -10 -15 -10 -15 1 0 11 -3 11 -11 -1 -8 -11 -12 -12 -16
-3 -3 9 -10 10 -23 3 -13 -7 -21 -7 -26 1 -4 8 -9 7 -15 -2 -8 -12 -11 -11
-19 1 -7 11 -10 11 -10 2 0 -9 -5 -10 -18 -3 -13 7 -22 7 -29 0 -8 -8 -13 -7
-17 0 -5 8 -13 8 -27 1 -13 -8 -19 -7 -19 0 0 6 -5 8 -11 4 -14 -8 -132 -10
-146 -1 -6 4 -13 3 -17 0 -10 -11 -46 -11 -46 0 0 5 -7 4 -15 -3 -12 -10 -15
-10 -15 1 0 11 -3 11 -11 -1 -8 -11 -12 -12 -16 -3 -3 9 -10 10 -23 3 -13 -7
-21 -7 -26 1 -4 8 -9 7 -15 -2 -8 -12 -11 -11 -19 1 -7 11 -10 11 -10 2 0 -9
-5 -10 -18 -3 -13 7 -22 7 -29 0 -8 -8 -13 -7 -17 0 -5 8 -13 8 -27 1 -13 -8
-19 -7 -19 0 0 6 -5 8 -11 4 -14 -8 -132 -10 -146 -1 -6 4 -13 3 -17 0 -10
-11 -46 -11 -46 0 0 5 -7 4 -15 -3 -12 -10 -15 -10 -15 1 0 11 -3 11 -11 -1
-8 -11 -12 -12 -16 -3 -3 9 -10 10 -23 3 -13 -7 -21 -7 -26 1 -4 8 -9 7 -15
-2 -8 -12 -11 -11 -19 1 -7 11 -10 11 -10 2 0 -9 -5 -10 -18 -3 -13 7 -22 7
-29 0 -8 -8 -13 -7 -17 0 -5 8 -13 8 -27 1 -13 -8 -19 -7 -19 0 0 6 -5 8 -11
5 -17 -11 -89 -11 -89 0 0 7 -3 7 -8 0 -8 -11 -58 -12 -83 -1 -9 4 -28 5 -42
2 -15 -3 -27 0 -27 5 0 6 -4 7 -10 4 -15 -9 -81 -12 -86 -4 -2 4 -13 6 -24 4
-13 -2 -17 1 -14 10 4 9 -2 13 -20 11 -21 -3 -24 0 -16 14 12 22 1 33 -17 18
-8 -6 -13 -7 -12 -2 4 21 -2 34 -15 34 -9 0 -12 7 -9 23 3 16 2 18 -5 9 -7
-11 -11 -8 -16 12 -4 15 -11 24 -16 21 -5 -3 -7 0 -4 8 3 8 0 18 -7 23 -8 4
-10 3 -5 -4 5 -8 2 -10 -9 -6 -13 5 -13 9 -3 22 7 9 8 13 3 10 -6 -4 -17 -3
-25 3 -13 7 -13 9 0 9 12 0 13 2 1 9 -7 5 -15 23 -17 41 -2 17 -7 36 -10 42
-4 6 -3 8 3 5 5 -3 9 8 9 28 -1 19 -4 35 -9 35 -8 0 13 42 28 53 6 4 5 10 -3
16 -11 7 -11 9 2 14 9 4 16 1 17 -6 1 -7 4 -1 8 13 4 14 14 24 21 22 8 -2 10
3 6 14 -5 14 -4 15 8 5 11 -9 15 -8 19 3 7 18 74 19 96 2 11 -8 13 -8 8 1 -5
8 216 11 908 10 604 -1 915 1 915 8 0 6 7 1 15 -9 9 -12 15 -15 15 -7 0 7 6
11 14 8 8 -3 17 -1 20 6 3 9 5 8 5 -1 1 -7 6 -10 11 -7 6 4 18 1 27 -7 9 -7
14 -8 10 -2 -5 9 83 12 338 12 258 0 345 -2 345 -11 0 -9 2 -9 8 0 10 15 164
15 174 0 6 -9 8 -9 8 0 0 7 20 12 55 12 40 0 53 -4 48 -12 -5 -9 -3 -9 8 0 19
15 119 16 119 0 0 -9 2 -9 8 0 10 15 82 14 101 -1 11 -8 13 -8 8 1 -10 16 212
15 232 -1 11 -8 13 -8 8 1 -10 16 212 15 232 -1 11 -8 13 -8 8 1 -10 16 192
15 212 -1 11 -8 13 -8 8 1 -5 8 154 11 648 11 361 -1 658 2 662 6 3 3 15 -2
26 -11 11 -10 17 -13 14 -7 -8 13 30 27 38 14 3 -5 20 -4 37 2 18 6 27 13 20
16 -6 2 -12 10 -12 18 0 10 5 12 13 8 7 -5 7 -2 -2 10 -12 15 -12 17 0 14 9
-2 14 5 13 20 -1 12 2 22 7 22 5 0 6 7 3 15 -4 8 -1 15 6 15 6 0 8 5 5 10 -3
6 -2 10 4 10 6 0 8 6 5 14 -3 8 -1 17 5 20 6 4 8 13 5 20 -3 8 0 17 5 21 6 3
8 11 5 17 -5 7 -2 9 8 6 11 -5 14 0 10 18 -2 13 1 31 8 39 6 8 9 19 5 25 -3 5
-1 10 4 10 6 0 10 3 9 8 -5 17 14 52 25 45 7 -4 6 1 -2 10 -10 13 -10 17 -1
17 7 0 10 7 7 14 -4 9 2 17 14 21 20 7 20 7 2 20 -17 13 -17 14 -1 20 9 4 14
13 12 20 -3 7 5 23 18 35 13 13 17 20 11 16 -20 -11 -15 13 8 46 18 25 19 32
8 39 -10 6 -10 9 -1 9 6 0 12 7 12 16 0 8 4 13 9 10 4 -3 7 6 5 19 -1 18 3 25
14 26 11 0 13 2 4 6 -10 4 -10 8 0 21 10 12 10 14 1 8 -9 -5 -11 -2 -7 8 3 9
10 16 16 16 5 0 6 4 3 10 -3 5 -2 10 4 10 5 0 8 11 6 25 -1 14 2 25 7 25 5 0
6 5 2 12 -5 8 -1 9 12 4 15 -6 17 -5 7 5 -18 18 -16 29 5 22 13 -5 14 -3 5 7
-8 9 -8 20 3 46 8 19 12 40 8 46 -4 7 -3 8 4 4 7 -4 12 -2 12 4 0 6 4 9 9 6 5
-3 7 8 6 24 -1 17 1 30 6 30 4 0 6 9 4 20 -2 11 -1 20 3 20 4 0 8 9 9 19 1 15
-6 20 -38 23 -22 2 -44 -1 -49 -6 -6 -6 -10 -6 -10 -1 0 6 -18 10 -40 10 -22
0 -40 -3 -40 -7 0 -4 -10 -4 -22 0 -29 9 -70 8 -86 -2 -6 -4 -12 -4 -12 1 0 9
-118 8 -127 -1 -3 -3 -14 -1 -24 4 -12 7 -19 6 -22 -3 -3 -6 -6 -7 -6 -2 -1
11 -72 12 -90 1 -6 -4 -11 -4 -11 1 0 4 -18 8 -40 8 -22 0 -40 -3 -40 -7 0 -4
-10 -4 -22 0 -29 9 -70 8 -86 -2 -6 -4 -12 -4 -12 1 0 9 -118 8 -127 -1 -3 -3
-14 -1 -24 4 -12 7 -19 6 -22 -3 -3 -6 -6 -7 -6 -2 -1 11 -72 12 -90 1 -6 -4
-11 -4 -11 1 0 4 -18 8 -40 8 -22 0 -40 -3 -40 -7 0 -4 -11 -3 -24 2 -17 6
-26 5 -30 -3 -2 -7 -5 -7 -5 -2 -1 11 -72 12 -90 1 -6 -4 -11 -3 -11 3 0 6
-11 6 -30 1 -16 -5 -30 -6 -30 -2 0 9 -74 7 -89 -2 -6 -4 -11 -3 -11 3 0 6
-11 6 -30 1 -16 -5 -30 -6 -30 -2 0 9 -74 7 -89 -2 -6 -4 -11 -3 -11 3 0 6
-11 6 -30 1 -16 -5 -30 -6 -30 -2 0 9 -74 7 -89 -2 -6 -4 -11 -4 -11 1 0 10
-93 8 -109 -1 -6 -4 -11 -4 -11 1 0 9 -118 8 -127 -1 -3 -3 -14 -1 -24 4 -12
7 -19 6 -22 -3 -3 -6 -6 -7 -6 -2 -1 11 -72 12 -90 1 -6 -4 -11 -4 -11 1 0 4
-18 8 -40 8 -22 0 -40 -3 -40 -7 0 -4 -10 -4 -22 0 -29 9 -70 8 -86 -2 -6 -4
-12 -4 -12 1 0 9 -134 8 -149 -2 -6 -3 -11 -3 -11 2 0 9 -118 8 -127 -1 -3 -3
-14 -1 -24 4 -12 7 -19 6 -22 -3 -3 -6 -6 -7 -6 -2 -1 11 -72 12 -90 1 -6 -4
-11 -4 -11 1 0 4 -18 8 -40 8 -22 0 -40 -3 -40 -7 0 -4 -10 -4 -22 0 -29 9
-70 8 -86 -2 -6 -4 -12 -4 -12 1 0 9 -118 8 -127 -1 -3 -3 -14 -1 -24 4 -12 7
-19 6 -22 -3 -3 -6 -6 -7 -6 -2 -1 11 -72 12 -90 1 -6 -4 -11 -4 -11 1 0 4
-18 8 -40 8 -22 0 -40 -3 -40 -7 0 -4 -10 -4 -22 0 -29 9 -70 8 -86 -2 -6 -4
-12 -4 -12 1 0 9 -118 8 -127 -1 -3 -3 -14 -1 -24 4 -12 7 -19 6 -22 -3 -3 -6
-6 -7 -6 -2 -1 11 -72 12 -90 1 -6 -4 -11 -4 -11 1 0 4 -18 8 -40 8 -22 0 -40
-3 -40 -7 0 -4 -10 -4 -22 0 -29 9 -70 8 -86 -2 -6 -4 -12 -4 -12 1 0 9 -118
8 -127 -1 -3 -3 -14 -1 -24 4 -12 7 -19 6 -22 -3 -3 -6 -6 -7 -6 -2 -1 11 -72
12 -90 1 -6 -4 -11 -4 -11 1 0 4 -18 8 -40 8 -22 0 -40 -4 -40 -8 0 -5 -4 -6
-9 -2 -17 10 -71 13 -77 4 -3 -5 -13 -5 -24 1 -13 7 -20 6 -23 -3 -3 -6 -6 -7
-6 -2 -1 11 -72 12 -90 1 -6 -4 -11 -4 -11 1 0 4 -18 8 -40 8 -22 0 -40 -3
-40 -7 0 -4 -10 -4 -22 0 -29 9 -70 8 -86 -2 -6 -4 -12 -4 -12 1 0 9 -118 8
-127 -1 -3 -3 -14 -1 -24 4 -12 7 -19 6 -22 -3 -3 -6 -6 -7 -6 -2 -1 11 -72
12 -90 1 -6 -4 -11 -4 -11 1 0 4 -18 8 -40 8 -22 0 -40 -3 -40 -7 0 -4 -10 -4
-22 0 -29 9 -70 8 -86 -2 -6 -4 -12 -4 -12 1 0 9 -118 8 -127 -1 -3 -3 -14 -1
-24 4 -12 7 -19 6 -22 -3 -3 -6 -6 -7 -6 -2 -1 11 -72 12 -90 1 -6 -4 -11 -4
-11 1 0 4 -18 8 -40 8 -22 0 -40 -3 -40 -7 0 -4 -11 -3 -24 2 -17 6 -26 5 -30
-3 -2 -7 -5 -7 -5 -2 -1 11 -72 12 -90 1 -6 -4 -11 -3 -11 3 0 6 -11 6 -30 1
-16 -5 -30 -6 -30 -2 0 9 -74 7 -89 -2 -6 -4 -11 -3 -11 3 0 6 -11 6 -30 1
-16 -5 -30 -6 -30 -2 0 9 -74 7 -89 -2 -6 -4 -11 -3 -11 3 0 6 -11 6 -30 1
-16 -5 -30 -6 -30 -2 0 9 -74 7 -89 -2 -6 -4 -11 -4 -11 1 0 9 -77 9 -87 0 -3
-4 -14 -2 -24 3 -12 7 -19 6 -22 -3 -3 -6 -6 -7 -6 -2 -1 11 -72 12 -90 1 -6
-4 -11 -4 -11 1 0 4 -18 8 -40 8 -22 0 -40 -3 -40 -7 0 -4 -10 -4 -22 0 -29 9
-70 8 -86 -2 -6 -4 -12 -4 -12 1 0 9 -118 8 -127 -1 -3 -3 -14 -1 -24 4 -12 7
-19 6 -22 -3 -3 -6 -6 -7 -6 -2 -1 11 -72 12 -90 1 -6 -4 -11 -4 -11 1 0 4
-18 8 -40 8 -22 0 -40 -3 -40 -7 0 -4 -10 -4 -22 0 -29 9 -70 8 -86 -2 -6 -4
-12 -4 -12 1 0 9 -118 8 -127 -1 -3 -3 -13 -2 -22 3 -9 4 -28 5 -42 2z m5225
-3152 c-3 -5 -10 -7 -15 -3 -5 3 -7 10 -3 15 3 5 10 7 15 3 5 -3 7 -10 3 -15z"/>
<path d="M4055 5480 c3 -5 8 -10 11 -10 2 0 4 5 4 10 0 6 -5 10 -11 10 -5 0
-7 -4 -4 -10z"/>
<path d="M3480 5240 c0 -5 5 -10 10 -10 6 0 10 5 10 10 0 6 -4 10 -10 10 -5 0
-10 -4 -10 -10z"/>
<path d="M8581 4324 c0 -11 3 -14 6 -6 3 7 2 16 -1 19 -3 4 -6 -2 -5 -13z"/>
<path d="M5366 2383 c-3 -4 -21 -8 -39 -9 -17 -2 -33 -8 -35 -13 -2 -6 -17
-11 -33 -11 -16 0 -29 -5 -29 -11 0 -5 -4 -8 -9 -5 -5 3 -12 -1 -15 -10 -3 -9
-11 -12 -18 -8 -8 5 -9 2 -5 -9 5 -13 1 -17 -15 -17 -12 0 -19 -3 -15 -6 7 -7
-134 -150 -145 -147 -4 2 -4 -5 -1 -14 4 -11 3 -14 -5 -9 -7 4 -13 0 -14 -11
-2 -24 -5 -46 -8 -55 -6 -20 -6 -34 1 -43 4 -6 4 -17 -1 -25 -13 -21 -12 -33
2 -24 7 5 8 3 3 -7 -14 -21 -15 -59 -2 -59 8 0 8 -3 2 -8 -15 -10 -18 -55 -3
-46 7 5 8 3 3 -7 -13 -19 -15 -59 -4 -59 5 0 9 -5 9 -11 0 -5 -3 -8 -7 -6 -5
3 -9 -6 -9 -19 -1 -14 2 -21 9 -17 6 4 7 1 2 -8 -14 -21 -15 -59 -2 -59 8 0 8
-3 2 -8 -13 -9 -17 -32 -6 -32 5 0 9 -6 8 -12 -1 -37 4 -58 13 -53 6 3 10 0
10 -7 0 -15 36 -49 43 -41 3 2 8 -5 12 -16 3 -11 15 -23 26 -26 10 -4 17 -10
15 -14 -3 -4 -1 -13 5 -21 7 -13 9 -13 9 0 0 8 10 0 21 -17 12 -18 26 -30 32
-26 7 4 8 0 3 -13 -4 -10 -4 -16 -1 -12 9 9 47 -31 40 -42 -3 -5 1 -7 9 -4 9
3 23 -1 32 -10 9 -10 24 -14 35 -11 11 4 19 2 19 -6 0 -8 3 -9 13 0 8 6 17 7
21 3 11 -10 30 -9 38 3 5 6 8 5 8 -4 0 -10 3 -11 14 -2 10 8 16 9 21 1 4 -6
12 -7 24 0 12 6 22 5 29 -2 9 -9 12 -9 12 1 0 11 3 11 17 0 19 -16 23 -16 34
3 7 11 9 11 9 -1 0 -10 3 -11 14 -2 10 8 16 9 21 1 3 -5 11 -10 16 -10 6 0 7
6 3 13 -6 9 -4 9 8 -1 13 -10 17 -10 21 0 4 11 6 11 6 0 1 -9 6 -10 19 -4 9 5
27 8 39 7 12 -1 25 5 28 13 3 8 12 11 21 8 8 -3 12 -2 9 4 -8 12 25 50 53 61
13 5 20 13 17 19 -5 8 22 15 47 11 4 0 4 7 1 16 -4 11 -3 14 5 9 7 -4 12 -2
12 4 0 6 5 8 12 4 8 -5 9 0 5 15 -4 18 -3 20 9 10 12 -10 13 -9 8 6 -5 13 -4
16 4 11 7 -4 12 -2 12 4 0 6 5 8 12 4 6 -4 8 -3 4 4 -3 6 -1 14 5 17 5 4 8 13
5 21 -3 8 1 14 9 14 10 0 14 11 13 36 -1 20 4 39 11 44 11 6 11 9 0 12 -11 4
-12 9 -2 26 9 14 9 23 2 27 -6 5 -6 12 3 23 7 9 8 13 2 9 -15 -9 -14 65 0 75
8 5 8 8 0 8 -7 0 -11 24 -11 65 0 35 4 62 8 59 5 -3 6 2 3 10 -3 9 -11 13 -18
9 -6 -3 -2 4 9 17 11 13 15 21 9 17 -7 -4 -11 6 -11 28 0 19 4 35 9 35 5 0 3
7 -5 15 -9 8 -13 23 -10 33 3 12 -2 22 -12 26 -10 3 -13 11 -9 18 4 7 4 10 -1
6 -9 -8 -35 15 -35 32 0 6 -4 9 -9 5 -5 -3 -12 4 -16 15 -3 11 -11 20 -16 20
-6 0 -7 -5 -3 -12 4 -7 3 -8 -4 -4 -7 4 -12 16 -12 27 0 11 -3 18 -7 16 -5 -2
-32 20 -61 49 -29 30 -49 54 -45 55 5 0 -2 4 -15 10 -13 5 -21 12 -18 17 2 4
-11 7 -30 7 -19 -1 -34 3 -34 8 0 5 -6 4 -14 -2 -8 -7 -17 -8 -20 -3 -6 10
-36 9 -53 -1 -6 -4 -14 -3 -18 3 -9 15 -28 12 -19 -2 5 -10 4 -10 -6 -1 -9 8
-19 9 -31 3 -11 -7 -20 -7 -24 0 -3 5 -11 10 -16 10 -6 0 -7 -4 -4 -10 4 -7
-2 -7 -19 0 -17 6 -27 6 -32 -1 -4 -7 -10 -7 -18 0 -7 6 -16 8 -20 4z"/>
<path d="M8351 2271 c-1 -7 -7 -11 -16 -8 -8 4 -17 2 -20 -4 -4 -5 -10 -7 -14
-4 -10 6 -51 -28 -51 -43 0 -6 -5 -14 -12 -18 -7 -5 -9 -2 -3 7 4 8 -9 -3 -29
-24 -20 -21 -36 -43 -36 -48 0 -6 -3 -8 -7 -6 -10 6 -34 -19 -26 -27 4 -3 0
-6 -9 -6 -17 0 -69 -55 -61 -64 4 -3 1 -6 -5 -6 -6 0 -9 -7 -6 -15 4 -8 1 -15
-6 -15 -6 0 -8 -4 -5 -10 3 -5 0 -10 -7 -10 -10 0 -10 -2 0 -9 19 -12 19 -15
2 -36 -8 -11 -10 -16 -3 -12 13 8 13 -39 0 -61 -5 -6 -4 -12 2 -12 10 0 9 -19
-2 -37 -5 -7 -4 -13 2 -13 10 0 7 -32 -5 -52 -5 -8 -1 -9 12 -5 18 7 18 7 0
-8 -11 -8 -15 -15 -9 -15 13 0 12 -38 -1 -59 -5 -8 -3 -16 4 -21 7 -4 9 -13 6
-19 -4 -6 -2 -11 5 -11 8 0 8 -4 -1 -15 -8 -9 -9 -15 -2 -15 6 0 9 -9 7 -20
-2 -11 1 -19 8 -17 7 1 11 -6 11 -15 -1 -10 2 -15 7 -12 5 3 9 0 9 -6 0 -6 5
-8 12 -4 7 5 9 2 5 -8 -3 -10 7 -26 29 -44 19 -16 34 -34 34 -41 0 -6 9 -15
20 -18 11 -3 20 -11 20 -16 0 -6 5 -7 12 -3 7 5 9 1 6 -13 -4 -15 -1 -20 11
-19 9 0 15 -5 14 -11 -2 -7 6 -13 18 -13 11 0 17 -4 14 -10 -6 -9 14 -14 43
-11 6 1 12 -3 12 -9 0 -12 22 -9 32 5 5 6 8 6 8 -1 0 -6 7 -11 15 -11 8 0 15
5 15 10 0 5 6 5 13 -2 10 -8 17 -7 27 2 10 9 11 9 6 -1 -8 -13 19 -13 41 1 6
4 14 3 18 -3 4 -6 12 -7 18 -3 17 10 47 11 41 1 -7 -11 7 -10 26 2 9 5 19 5
27 -2 9 -7 17 -7 28 2 12 10 15 10 15 0 0 -9 3 -10 13 -1 10 8 17 7 25 -1 8
-8 15 -8 26 1 10 9 16 9 21 1 5 -8 11 -7 23 2 13 11 14 11 7 -2 -7 -12 -6 -13
6 -4 8 6 24 10 36 9 14 -1 25 5 28 16 4 10 9 18 13 18 20 -3 25 2 12 11 -13 8
-12 10 5 11 11 1 23 1 26 1 4 -1 6 6 5 16 0 9 6 17 14 17 8 0 14 8 14 17 -1
11 4 14 14 11 10 -4 13 -2 8 5 -6 11 5 17 26 13 5 0 7 2 7 7 -3 19 2 33 10 28
5 -3 12 1 15 10 4 10 2 13 -7 8 -9 -6 -9 -4 -1 7 6 8 10 24 9 36 -1 12 1 20 5
18 9 -5 6 67 -3 82 -4 6 -2 15 4 19 8 5 9 3 4 -6 -5 -8 -4 -11 3 -6 6 4 9 13
6 21 -4 8 -9 13 -13 11 -3 -2 -6 13 -6 35 0 21 5 39 10 39 6 0 3 5 -5 10 -10
6 -11 10 -3 10 9 0 10 7 3 25 -7 18 -6 25 3 25 8 0 7 4 -3 10 -13 9 -13 10 0
10 13 0 13 1 0 10 -13 9 -13 10 0 10 12 0 13 2 1 9 -11 7 -11 9 0 14 9 3 9 6
2 6 -8 1 -9 10 -3 30 4 15 5 33 1 40 -4 6 -6 24 -5 41 1 16 -2 30 -7 30 -5 0
-9 7 -9 16 0 8 -4 12 -10 9 -5 -3 -10 0 -10 9 0 8 6 17 13 20 6 2 1 4 -13 3
-16 -1 -24 3 -22 11 1 8 -2 11 -7 8 -5 -3 -11 1 -15 9 -3 8 -13 15 -22 15 -10
0 -14 3 -11 7 4 3 -2 13 -13 20 -11 8 -18 18 -15 23 3 4 -5 10 -16 13 -15 4
-20 11 -15 23 5 14 4 15 -9 4 -12 -10 -15 -10 -15 4 0 8 -11 23 -25 32 -14 9
-23 20 -20 24 2 4 -6 5 -19 3 -13 -3 -27 0 -30 6 -5 8 -13 8 -27 1 -14 -8 -19
-7 -19 2 0 6 -7 3 -15 -8 -15 -18 -15 -18 -8 0 5 15 3 17 -7 11 -16 -10 -263
-11 -279 -1 -6 4 -11 0 -12 -11 0 -16 -1 -16 -9 2 -5 11 -9 14 -9 6z"/>
</g>
</svg>
